<svg width="39" height="39" viewBox="0 0 39 39" fill="none" xmlns="http://www.w3.org/2000/svg">
<path d="M17.279 0C26.817 0 34.558 7.74098 34.558 17.279C34.558 26.817 26.817 34.558 17.279 34.558C7.74098 34.558 0 26.817 0 17.279C0 7.74098 7.74098 0 17.279 0ZM17.279 30.7182C24.7041 30.7182 30.7182 24.7041 30.7182 17.279C30.7182 9.85382 24.7041 3.83977 17.279 3.83977C9.85382 3.83977 3.83977 9.85382 3.83977 17.279C3.83977 24.7041 9.85382 30.7182 17.279 30.7182ZM33.5698 30.8547L39 36.2849L36.2849 39L30.8547 33.5698L33.5698 30.8547Z" fill="#9747FF"/>
</svg>
