<svg width="410" height="87" viewBox="0 0 410 87" fill="none" xmlns="http://www.w3.org/2000/svg">
<path d="M0.278207 83.5694C0.397491 83.2966 0.55256 83.0712 0.671844 82.834C2.15096 80.2481 4.01179 77.8876 5.80105 75.5389C6.14697 75.0763 6.50482 74.6137 6.85075 74.1511C7.24438 73.6529 7.62609 73.1428 8.01973 72.6446C8.48493 72.0278 8.95014 71.4466 9.37956 70.8297C9.49885 70.6755 9.57042 70.5569 9.6897 70.4027V70.3671C9.6897 70.2485 9.6897 70.1773 9.65392 70.1299C9.57042 69.8927 9.49885 69.6673 9.37956 69.43C8.87857 68.3862 8.32987 67.3779 7.74537 66.3815C7.47102 65.8833 7.16088 65.3733 6.88653 64.8751C0.910411 53.7486 -1.65419 39.0043 2.92631 26.917C3.23645 26.1104 3.63008 25.2564 4.09529 24.3311C15.6658 1.73423 48.6001 -5.18125 69.6895 7.33304C78.9697 12.8132 86.6278 22.0418 88.7987 32.6345C91.3991 45.5758 88.7987 60.9013 78.6954 70.2129C64.8346 83.0356 46.0355 85.5029 28.0475 82.3358C27.7373 82.3002 23.968 81.6359 21.3318 81.0666C15.7732 83.1542 10.2265 84.9691 4.51278 86.5467C3.73744 86.784 2.96209 86.9738 2.18675 86.8907C0.910411 86.7721 -0.187 85.6571 0.087353 84.3404C0.123138 84.0676 0.242422 83.8422 0.325921 83.5694H0.290135H0.278207Z" fill="#FFEAD9"/>
<path d="M0.241354 83.5931C2.77017 78.7653 6.4799 74.7797 9.60513 70.3434L9.59321 70.3908C9.59321 70.3078 9.59321 70.1773 9.58128 70.1773C8.86557 68.481 7.66081 66.4645 6.75425 64.8394C-2.58567 47.1771 -2.74074 25.0191 14.0663 11.7693C35.1915 -5.44226 70.9767 -2.39375 85.1118 22.1485C90.6346 31.5075 91.2907 43.1322 88.7619 53.5351C85.0879 69.8214 69.1755 80.3192 53.3823 82.917C42.6945 84.9098 31.8039 83.5575 21.283 81.28C16.2135 83.2965 9.54549 85.3012 3.80794 86.8314C1.62505 87.5312 -0.856058 85.9773 0.289067 83.5456L0.336781 83.605C0.312924 83.605 0.277139 83.605 0.26521 83.5812H0.241354V83.5931ZM0.312924 83.5456C-0.486278 85.9299 1.30298 87.3296 3.7483 86.6535C9.6767 84.9809 15.5335 83.0119 21.295 80.8293C23.955 81.3038 26.6031 81.8494 29.275 82.2646C44.9489 84.8505 62.1854 82.6679 74.9727 72.7157C94.6426 58.3154 93.9388 24.7344 73.9468 10.6781C52.941 -5.82184 16.9292 0.393792 4.28508 24.3785C-2.15625 37.735 0.790059 53.9858 7.9113 66.512C8.40037 67.5795 9.65285 69.43 9.7602 70.4027C6.65882 74.7678 2.92524 78.8602 0.312924 83.5456Z" fill="#9747FF"/>
<path d="M106.275 82.7503C106.156 82.4775 106.001 82.2521 105.881 82.0148C104.402 79.4289 102.541 77.0684 100.752 74.7198C100.406 74.2572 100.048 73.7945 99.7023 73.3319C99.3087 72.8337 98.927 72.3237 98.5334 71.8255C98.0682 71.2087 97.603 70.6274 97.1735 70.0106C97.0542 69.8564 96.9827 69.7378 96.8634 69.5836V69.548C96.8634 69.4294 96.8634 69.3582 96.8992 69.3108C96.9827 69.0735 97.0542 68.8481 97.1735 68.6109C97.6745 67.5671 98.2232 66.5588 98.8077 65.5624C99.0821 65.0642 99.3922 64.5541 99.6666 64.0559C105.643 52.9295 108.207 38.1852 103.627 26.086C103.317 25.2794 102.923 24.4254 102.458 23.5001C90.8873 0.91509 57.953 -6.00039 36.8636 6.5139C27.5834 11.9941 19.9253 21.2226 17.7544 31.8153C15.154 44.7566 17.7544 60.0822 27.8577 69.3938C41.7185 82.2165 60.5176 84.6838 78.5056 81.5166C78.8158 81.4811 82.5851 80.8168 85.2213 80.2474C90.7799 82.3351 96.3266 84.15 102.04 85.7276C102.816 85.9648 103.591 86.1546 104.366 86.0716C105.643 85.953 106.74 84.838 106.466 83.5213C106.43 83.2485 106.311 83.0231 106.227 82.7503H106.263H106.275Z" fill="#FFEAD9"/>
<path d="M106.275 82.7504C103.675 77.9938 99.8934 73.9726 96.7801 69.5837C96.8755 68.6229 98.128 66.7487 98.6171 65.6811C105.667 53.155 108.625 36.9279 102.196 23.5951C99.7383 18.886 96.2791 14.7106 92.14 11.3655C75.6072 -1.84861 49.5556 -3.30762 32.6412 9.93024C19.0428 20.2382 14.5697 36.2874 18.5776 52.5263C22.18 68.5398 37.7465 78.7766 53.2892 81.493C63.8697 83.5333 74.7245 82.2522 85.1857 80.117C90.959 82.2522 96.8278 84.2687 102.78 85.9056C105.082 86.5936 107.17 85.1821 106.275 82.7622V82.7504ZM106.275 82.7504C107.206 85.1346 105.142 86.6411 102.768 85.965C96.8159 84.3873 90.9471 82.5132 85.1738 80.378C82.967 80.8406 79.8537 81.4693 77.3249 81.8963C54.3151 86.3683 24.0766 77.8751 17.8738 52.7042C15.3212 42.3251 15.9176 30.7004 21.4046 21.3177C35.3966 -3.30762 71.4919 -6.34427 92.5336 10.8911C109.376 24.1764 109.269 46.37 99.8218 64.056C98.9153 65.6693 97.6867 67.7332 96.9829 69.382C99.5833 73.6523 103.854 77.9819 106.275 82.7504Z" fill="#9747FF"/>
<path d="M55.1139 60.1886C50.0086 56.0488 45.0106 51.8023 40.0484 47.4964C34.2989 43.1787 31.2452 36.7258 33.8098 29.6917C36.3506 23.2033 44.0205 19.6447 50.6169 21.3291C57.3922 22.9067 61.3405 29.2528 63.8932 35.1956C61.0423 29.6087 56.9986 23.4642 50.438 22.112C44.2591 20.736 37.0782 24.0929 34.8357 30.0713C32.9033 35.3024 34.621 41.4824 38.8675 45.0884L40.6925 46.7372C45.5593 51.1499 50.3784 55.6099 55.0901 60.1886H55.1139Z" fill="#9747FF"/>
<path d="M62.7843 32.8589C63.2495 22.2781 73.4602 18.2925 82.0844 23.5592C90.3508 28.6954 91.1261 39.549 85.6629 47.0339C82.156 52.6445 74.8558 54.5069 72.0168 60.5801C71.0387 62.4899 70.5258 64.7555 69.0228 66.3925C66.2197 69.8917 60.494 71.1965 56.9394 68.1006C53.4086 64.9335 54.4225 59.6431 56.2117 55.8472C54.6968 59.5956 53.8141 64.803 57.2972 67.6854C60.6252 70.4374 65.8737 69.1207 68.3548 65.8468C70.3349 63.2728 70.7405 59.821 72.9115 57.3181C76.3111 53.036 81.8339 51.1025 84.7325 46.4052C89.9691 39.3118 89.2891 29.3241 81.6073 24.2828C73.329 19.0517 63.7505 22.717 62.7724 32.8589H62.7843Z" fill="#9747FF"/>
<path d="M69.3096 30.4627C71.5282 28.719 74.6177 27.8412 77.397 28.7546C80.1167 29.7035 82.5978 32.0641 83.0511 34.9702C83.4089 39.4659 79.6992 42.9651 76.3592 45.4087C75.1783 46.156 73.9497 46.8677 73.0432 47.9353C73.7946 46.7491 75.0352 45.9306 76.1207 45.0884C79.0551 42.5974 82.5739 39.2168 82.228 35.0888C81.8702 32.4555 79.568 30.3441 77.1942 29.3595C74.6535 28.3869 71.6833 29.0393 69.3215 30.4746L69.3096 30.4627Z" fill="#9747FF"/>
<path d="M76.1807 32.4553C78.4113 33.2145 80.0932 35.7411 78.4233 37.8762C77.3139 39.8334 74.8328 40.4028 73.8428 42.3719C73.9143 41.8381 74.1768 41.3162 74.5227 40.8773C77.4213 38.149 80.7135 35.7411 76.1927 32.4553H76.1807Z" fill="#9747FF"/>
<path d="M139.88 44.3722L134 5.18869L142.708 3.75732L143.247 7.24627L170.178 9.16966C167.53 30.8638 162.099 41.5542 139.88 44.3722ZM147.286 33.8159C155.545 31.4005 158.014 26.7933 160.079 16.8632L144.548 15.8344L147.286 33.8159Z" fill="#9747FF"/>
<path d="M174.533 19.1446L178.528 2.63916L186.518 4.65201L182.568 21.0232L174.488 19.1446H174.533ZM189.974 2.63916L197.964 4.65201L194.014 21.0232L185.934 19.1446L189.929 2.63916H189.974Z" fill="#9747FF"/>
<path d="M203.08 7.24609H211.923V43.4775H203.08V7.24609Z" fill="#9747FF"/>
<path d="M235.802 7.24637H244.645V43.4777H217.623V35.0238H223.279L220.496 7.64894L229.338 6.79907L232.256 35.0238H235.847V7.24637H235.802Z" fill="#9747FF"/>
<path d="M253.308 42.0463L262.465 15.7003H251.153V0H259.996V7.24627H274.719L261.702 44.8195L253.353 42.0463H253.308Z" fill="#9747FF"/>
<path d="M320.593 15.7001H299.541V7.24609H329.435V43.4775H320.593V15.7001ZM302.369 22.5438L311.077 23.1253L309.371 44.1037L300.618 43.5222L302.324 22.5438H302.369Z" fill="#9747FF"/>
<path d="M350.263 47.2795C352.148 47.2795 353.674 48.8004 353.674 50.679C353.674 52.5577 352.148 54.168 350.263 54.168C348.378 54.168 346.762 52.6024 346.762 50.679C346.762 48.7556 348.333 47.2795 350.263 47.2795ZM354.886 55.5546C356.771 55.5546 358.297 57.1202 358.297 59.0436C358.297 60.9669 356.771 62.443 354.886 62.443C353.001 62.443 351.475 60.9222 351.475 59.0436C351.475 57.1649 353.001 55.5546 354.886 55.5546ZM356.098 50.679C356.098 48.8004 357.624 47.2795 359.509 47.2795C361.395 47.2795 363.011 48.8004 363.011 50.679C363.011 52.5577 361.44 54.168 359.509 54.168C357.579 54.168 356.098 52.6024 356.098 50.679Z" fill="#9747FF"/>
<path d="M335.72 7.24609H371.808V43.4775H338.144V35.0235H362.921V15.7001H349.59L349.006 22.1859H356.861V30.2374H339.266L340.657 15.7448H335.675V7.29082L335.72 7.24609Z" fill="#9747FF"/>
<path d="M390.121 50.3661C390.121 48.3085 391.692 46.7429 393.757 46.7429C395.822 46.7429 397.393 48.3085 397.393 50.3661C397.393 52.4236 395.822 53.9892 393.757 53.9892C391.692 53.9892 390.121 52.4236 390.121 50.3661Z" fill="#9747FF"/>
<path d="M409.108 6.21756V43.4777H383.299V35.0237H400.266V20.8443L379.977 32.161L375.938 24.7358L384.915 19.7261L378.496 10.9142L385.453 5.77026L392.545 15.432L409.019 6.26229H409.153L409.108 6.21756Z" fill="#9747FF"/>
<path d="M149.891 73.6705H140.016V71.8813H151.776V86.6423H149.891V73.7153V73.6705ZM141.138 78.3672L143.023 78.5014L142.35 86.7317L140.464 86.5975L141.138 78.3672Z" fill="#9747FF"/>
<path d="M155.142 71.8813H166.992V86.6423H165.106V73.7153H158.598V86.6423H156.713V73.7153H155.142V71.9261V71.8813Z" fill="#9747FF"/>
<path d="M171.166 71.8813H173.051V86.6423H171.166V71.8813Z" fill="#9747FF"/>
<path d="M177.271 71.8813H179.157V86.6423H177.271V71.8813Z" fill="#9747FF"/>
<path d="M189.481 73.6705H182.254V71.8813H191.366V86.6423H189.481V73.7153V73.6705Z" fill="#9747FF"/>
<path d="M204.697 71.8813H214.976V86.6423H213.091V73.7153H208.826L207.525 86.6423H202.991V84.8531H205.819L206.941 73.7153H204.652V71.9261L204.697 71.8813Z" fill="#9747FF"/>
<path d="M219.194 71.8813H221.08V86.6423H219.194V71.8813Z" fill="#9747FF"/>
<path d="M224.178 71.8813H235.354V73.6705H232.931V86.5975H231.045V73.6705H224.178V71.8813Z" fill="#9747FF"/>
<path d="M240.156 86.9999L237.822 70.897L239.663 70.6287L239.887 72.1942L252.455 72.9099C251.288 80.3351 248.909 85.7922 240.111 86.9999H240.156ZM241.727 84.8976C247.024 83.6004 249.268 79.9325 250.301 74.5649L240.201 73.9834L241.772 84.8976H241.727Z" fill="#9747FF"/>
<path d="M255.238 71.8813H257.124V86.6423H255.238V71.8813Z" fill="#9747FF"/>
<path d="M272.61 71.6576V86.6422H262.331V84.8529H270.724V74.8781L260.356 81.2298L259.413 79.709L264.081 76.8463L260.984 72.6416L262.465 71.5681L265.652 75.9069L272.52 71.7023H272.565L272.61 71.6576Z" fill="#9747FF"/>
<path d="M293.572 80.2009L284.685 86.9104L283.562 85.3896L292.719 78.5012L289.398 72.2837L291.014 71.4338L298.824 86.0158L297.163 86.9104L293.572 80.2009Z" fill="#9747FF"/>
<path d="M300.709 71.8813H302.594V86.6423H300.709V71.8813Z" fill="#9747FF"/>
<path d="M312.917 73.6705H305.69V71.8813H314.802V86.6423H312.917V73.7153V73.6705Z" fill="#9747FF"/>
<path d="M320.549 73.6705H318.17V71.8813H322.434V79.2618H320.549V73.6705Z" fill="#9747FF"/>
<path d="M325.307 71.8813H336.483V73.6705H334.059V86.5975H332.174V73.6705H325.307V71.8813Z" fill="#9747FF"/>
<path d="M339.58 71.8813H341.465V86.6423H339.58V71.8813Z" fill="#9747FF"/>
<path d="M361.08 73.6705H353.854V71.8813H362.965V86.6423H361.08V73.7153V73.6705Z" fill="#9747FF"/>
<path d="M367.186 71.8813H369.071V86.6423H367.186V71.8813Z" fill="#9747FF"/>
<path d="M373.111 71.8813H383.39V86.6423H381.505V73.7153H377.24L375.939 86.6423H371.405V84.8531H374.233L375.355 73.7153H373.066V71.9261L373.111 71.8813Z" fill="#9747FF"/>
<path d="M389.179 73.6705H386.8V71.8813H391.064V79.2618H389.179V73.6705Z" fill="#9747FF"/>
<path d="M400.625 80.0221L394.97 87L393.533 85.7923L399.324 78.6802L393.623 72.8653L394.925 71.5681L401.792 78.5013L407.403 71.6128L408.839 72.7758L403.139 79.8432L408.795 85.5239L407.493 86.8658L400.67 79.9774L400.625 80.0221Z" fill="#9747FF"/>
</svg>
