<svg width="383" height="313" viewBox="0 0 383 313" fill="none" xmlns="http://www.w3.org/2000/svg">
<g clip-path="url(#clip0_590_1446)">
<path d="M1.02753 299.779C1.45544 298.801 2.01171 297.992 2.43961 297.141C7.74562 287.865 14.4209 279.397 20.8395 270.972C22.0804 269.312 23.3641 267.653 24.605 265.993C26.0171 264.206 27.3864 262.376 28.7985 260.589C30.4673 258.376 32.1361 256.291 33.6766 254.079C34.1045 253.526 34.3612 253.1 34.7891 252.547V252.419C34.7891 251.994 34.7891 251.738 34.6608 251.568C34.3612 250.717 34.1045 249.909 33.6766 249.058C31.8794 245.313 29.911 241.696 27.8143 238.122C26.8301 236.335 25.7176 234.505 24.7334 232.718C3.29542 192.804 -5.90451 139.912 10.527 96.5517C11.6395 93.6582 13.0516 90.5944 14.7205 87.2754C56.2271 6.21411 174.371 -18.5936 250.025 26.2986C283.316 45.9575 310.787 79.0629 318.575 117.062C327.903 163.486 318.575 218.463 282.332 251.866C232.609 297.865 165.171 306.715 100.644 295.354C99.531 295.226 86.0092 292.843 76.5526 290.801C56.6122 298.29 36.7147 304.801 16.2181 310.46C13.4367 311.311 10.6554 311.992 7.87399 311.694C3.29542 311.268 -0.641293 307.269 0.342886 302.545C0.471257 301.567 0.899161 300.758 1.19869 299.779H1.07032H1.02753Z" fill="#FFEAD9"/>
<path d="M0.89876 299.864C9.97032 282.546 23.2781 268.248 34.4892 252.334L34.4464 252.504C34.4464 252.206 34.4464 251.738 34.4036 251.738C31.8362 245.653 27.5144 238.419 24.2623 232.59C-9.24256 169.23 -9.79883 89.743 50.4928 42.2126C126.275 -19.5301 254.646 -8.5943 305.352 79.4455C325.164 113.019 327.518 154.72 318.446 192.038C305.267 250.461 248.184 288.12 191.53 297.439C153.19 304.587 114.122 299.736 76.381 291.566C58.1951 298.8 34.2753 305.992 13.6931 311.481C5.86244 313.991 -3.03795 308.417 1.06992 299.694L1.24108 299.907C1.1555 299.907 1.02713 299.907 0.984341 299.822H0.89876V299.864ZM1.1555 299.694C-1.71145 308.247 4.7071 313.268 13.4791 310.843C34.7459 304.843 55.756 297.779 76.4238 289.95C85.966 291.652 95.4655 293.609 105.051 295.098C161.277 304.375 223.109 296.545 268.98 260.844C339.542 209.186 337.017 88.7218 265.301 38.2979C189.947 -20.8918 60.7625 1.40539 15.4047 87.4452C-7.70211 135.359 2.86712 193.655 28.413 238.589C30.1674 242.419 34.6604 249.057 35.0455 252.546C23.92 268.206 10.5266 282.886 1.1555 299.694Z" fill="#9747FF"/>
<path d="M381.263 296.84C380.835 295.861 380.279 295.052 379.851 294.201C374.545 284.925 367.869 276.457 361.451 268.032C360.21 266.372 358.926 264.713 357.685 263.053C356.273 261.266 354.904 259.436 353.492 257.649C351.823 255.437 350.154 253.352 348.614 251.139C348.186 250.586 347.929 250.16 347.501 249.607V249.479C347.501 249.054 347.501 248.799 347.63 248.628C347.929 247.777 348.186 246.969 348.614 246.118C350.411 242.373 352.379 238.756 354.476 235.182C355.46 233.395 356.573 231.565 357.557 229.778C378.995 189.864 388.195 136.972 371.763 93.5693C370.651 90.6758 369.239 87.6121 367.57 84.293C326.063 3.27427 207.919 -21.5335 132.266 23.3587C98.9747 43.0177 71.5033 76.1231 63.7154 114.122C54.3871 160.546 63.7154 215.523 99.9589 248.926C149.681 294.925 217.119 303.776 281.647 292.414C282.759 292.286 296.281 289.904 305.738 287.861C325.678 295.35 345.576 301.861 366.072 307.52C368.854 308.371 371.635 309.052 374.416 308.754C378.995 308.329 382.932 304.329 381.947 299.605C381.819 298.627 381.391 297.818 381.092 296.84H381.22H381.263Z" fill="#FFEAD9"/>
<path d="M381.263 296.841C371.934 279.777 358.37 265.352 347.202 249.608C347.544 246.161 352.037 239.438 353.791 235.608C379.08 190.674 389.692 132.463 366.628 84.6344C357.814 67.7414 345.404 52.7631 330.556 40.7635C271.249 -6.63929 177.794 -11.8732 117.118 35.6147C68.3367 72.5923 52.2903 130.165 66.6678 188.418C79.5905 245.863 135.432 282.586 191.188 292.33C229.143 299.649 268.082 295.053 305.609 287.394C326.32 295.053 347.373 302.287 368.725 308.159C376.984 310.627 384.472 305.564 381.263 296.883V296.841ZM381.263 296.841C384.6 305.393 377.198 310.798 368.682 308.372C347.33 302.713 326.277 295.99 305.567 288.33C297.65 289.99 286.482 292.245 277.41 293.777C194.868 309.819 86.3942 279.352 64.1432 189.057C54.986 151.824 57.1256 110.123 76.8091 76.4645C127.002 -11.8732 256.486 -22.7664 331.968 39.0614C392.388 86.7195 392.003 166.334 358.113 229.779C354.861 235.566 350.454 242.97 347.929 248.885C357.257 264.203 372.576 279.735 381.263 296.841Z" fill="#9747FF"/>
<path d="M197.735 215.908C179.42 201.057 161.491 185.824 143.69 170.377C123.066 154.888 112.111 131.74 121.311 106.507C130.425 83.2311 157.94 70.4655 181.603 76.5079C205.908 82.1673 220.071 104.933 229.228 126.251C219.002 106.209 204.496 84.1672 180.961 79.3163C158.795 74.3803 133.036 86.4225 124.991 107.869C118.059 126.634 124.221 148.804 139.454 161.739L146.001 167.654C163.46 183.483 180.747 199.483 197.649 215.908H197.735Z" fill="#9747FF"/>
<path d="M225.249 117.87C226.918 79.9137 263.546 65.6163 294.484 84.5093C324.137 102.934 326.919 141.869 307.321 168.719C294.74 188.846 268.553 195.527 258.369 217.314C254.86 224.165 253.02 232.292 247.628 238.164C237.573 250.717 217.033 255.398 204.282 244.292C191.616 232.93 195.253 213.952 201.671 200.335C196.237 213.782 193.071 232.462 205.565 242.802C217.504 252.674 236.332 247.951 245.232 236.207C252.335 226.973 253.79 214.59 261.578 205.612C273.773 190.251 293.585 183.315 303.983 166.464C322.768 141.018 320.329 105.189 292.772 87.105C263.076 68.3396 228.715 81.4881 225.206 117.87H225.249Z" fill="#9747FF"/>
<path d="M248.656 109.272C256.615 103.017 267.697 99.868 277.668 103.144C287.424 106.549 296.324 115.016 297.95 125.442C299.234 141.569 285.926 154.122 273.945 162.887C269.709 165.568 265.301 168.121 262.049 171.951C264.745 167.696 269.195 164.76 273.089 161.738C283.616 152.802 296.239 140.675 294.998 125.867C293.714 116.421 285.455 108.846 276.94 105.315C267.826 101.825 257.171 104.166 248.699 109.314L248.656 109.272Z" fill="#9747FF"/>
<path d="M273.302 116.421C281.304 119.144 287.338 128.208 281.347 135.867C277.368 142.888 268.467 144.931 264.916 151.994C265.172 150.079 266.114 148.207 267.355 146.633C277.753 136.846 289.563 128.208 273.345 116.421H273.302Z" fill="#9747FF"/>
</g>
<defs>
<clipPath id="clip0_590_1446">
<rect width="382.075" height="312.118" fill="white"/>
</clipPath>
</defs>
</svg>
