<svg width="89" height="80" viewBox="0 0 89 80" fill="none" xmlns="http://www.w3.org/2000/svg">
<path d="M34.793 8.88889L25.9041 17.7778H8.88889V71.1111H80V17.7778H62.9849L54.096 8.88889H34.793ZM31.1111 0H57.7778L66.6667 8.88889H84.4444C86.8991 8.88889 88.8889 10.8788 88.8889 13.3333V75.5556C88.8889 78.0102 86.8991 80 84.4444 80H4.44444C1.98987 80 0 78.0102 0 75.5556V13.3333C0 10.8788 1.98987 8.88889 4.44444 8.88889H22.2222L31.1111 0ZM44.4444 66.6667C30.9441 66.6667 20 55.7227 20 42.2222C20 28.7219 30.9441 17.7778 44.4444 17.7778C57.9449 17.7778 68.8889 28.7219 68.8889 42.2222C68.8889 55.7227 57.9449 66.6667 44.4444 66.6667ZM44.4444 57.7778C53.0356 57.7778 60 50.8133 60 42.2222C60 33.6311 53.0356 26.6667 44.4444 26.6667C35.8533 26.6667 28.8889 33.6311 28.8889 42.2222C28.8889 50.8133 35.8533 57.7778 44.4444 57.7778Z" fill="black"/>
</svg>
