<svg width="89" height="81" viewBox="0 0 89 81" fill="none" xmlns="http://www.w3.org/2000/svg">
<path d="M31.1111 0.150391H57.7778L66.6667 9.03928H84.4444C86.8991 9.03928 88.8889 11.0291 88.8889 13.4837V75.7059C88.8889 78.1606 86.8991 80.1504 84.4444 80.1504H4.44444C1.98987 80.1504 0 78.1606 0 75.7059V13.4837C0 11.0291 1.98987 9.03928 4.44444 9.03928H22.2222L31.1111 0.150391ZM44.4444 71.2615C59.172 71.2615 71.1111 59.3224 71.1111 44.5948C71.1111 29.8672 59.172 17.9282 44.4444 17.9282C29.7168 17.9282 17.7778 29.8672 17.7778 44.5948C17.7778 59.3224 29.7168 71.2615 44.4444 71.2615ZM44.4444 62.3726C34.626 62.3726 26.6667 54.4131 26.6667 44.5948C26.6667 34.7766 34.626 26.8171 44.4444 26.8171C54.2627 26.8171 62.2222 34.7766 62.2222 44.5948C62.2222 54.4131 54.2627 62.3726 44.4444 62.3726Z" fill="black"/>
</svg>
