<svg width="173" height="405" viewBox="0 0 173 405" fill="none" xmlns="http://www.w3.org/2000/svg">
<path d="M110.593 116.394C90.7194 85.9947 93.6161 42.5617 117.355 15.072C124.722 6.53893 135.019 -0.876474 146.251 0.0840311C157.752 1.06734 167.017 10.9309 170.517 21.9324C174.017 32.9313 172.803 44.8501 170.748 56.2064C167.869 72.1092 163.051 88.382 152.019 100.194C140.985 112.007 124.776 124.144 110.593 116.394Z" fill="#FFEAD9"/>
<path d="M121.585 262.714C114.099 245.25 119.53 223.138 134.249 211.123C138.818 207.395 144.794 204.506 150.496 206.019C156.333 207.568 160.213 213.49 161.019 219.474C161.825 225.457 160.119 231.489 158.031 237.153C155.106 245.086 151.15 253.033 144.396 258.12C137.64 263.209 128.189 267.993 121.585 262.714Z" fill="#FFEAD9"/>
<path d="M73.656 252.281C79.1199 225.331 64.9177 195.591 40.5199 182.904C32.9473 178.966 23.6261 176.634 15.9953 180.456C8.18202 184.369 4.42615 193.903 5.04706 202.621C5.66797 211.339 9.85718 219.381 14.4848 226.796C20.9651 237.177 28.9127 247.273 39.98 252.491C51.0474 257.707 65.8503 261.704 73.656 252.281Z" fill="#FFEAD9"/>
<path d="M77.1 179.404C86.6164 148.696 70.4803 111.464 43.5913 93.8455C35.2458 88.3765 24.6777 84.5699 15.3514 88.123C5.80466 91.7598 0.317883 102.409 0.0162995 112.622C-0.285284 122.836 3.64802 132.681 8.16163 141.848C14.4822 154.682 22.5413 167.356 34.8049 174.723C47.0684 182.09 66.9146 189.45 77.1 179.404Z" fill="#FFEAD9"/>
<path d="M96.2109 329.496C96.1653 329.498 96.0614 328.986 95.8992 328.008C95.7319 326.89 95.5216 325.471 95.2605 323.725C95.1287 322.78 94.9869 321.746 94.8297 320.631C94.6118 319.498 94.3761 318.279 94.1252 316.979C93.6259 314.358 93.1089 311.365 92.2498 308.119C91.8544 306.484 91.4413 304.776 91.013 303C90.496 301.238 89.9613 299.411 89.4063 297.52C88.3824 293.709 86.8694 289.768 85.4502 285.566C82.3026 277.274 78.3947 268.328 73.5972 259.28C68.7085 250.278 63.4144 242.075 58.2418 234.867C55.525 231.362 53.0769 227.923 50.4666 224.963C49.1969 223.458 47.9703 222 46.7893 220.596C45.5475 219.256 44.3512 217.968 43.2083 216.734C40.9755 214.223 38.7682 212.139 36.8599 210.274C35.9146 209.346 35.03 208.477 34.2064 207.669C33.3599 206.921 32.5794 206.232 31.8647 205.598C30.5545 204.417 29.4875 203.457 28.6486 202.699C27.9213 202.025 27.5538 201.652 27.5817 201.617C27.6096 201.581 28.0328 201.885 28.8159 202.494C29.6979 203.203 30.818 204.103 32.1967 205.213C32.9367 205.821 33.7477 206.485 34.622 207.205C35.471 207.991 36.3834 208.837 37.3591 209.742C39.3232 211.564 41.5864 213.614 43.8723 216.095C45.0432 217.317 46.2646 218.594 47.5343 219.92C48.7407 221.316 49.9952 222.763 51.2903 224.261C53.9513 227.211 56.4476 230.642 59.2074 234.15C64.4636 241.36 69.8261 249.602 74.7453 258.659C79.5731 267.762 83.476 276.782 86.578 285.148C87.9744 289.385 89.4569 293.361 90.4428 297.211C90.975 299.119 91.4895 300.964 91.9862 302.741C92.3892 304.533 92.777 306.259 93.1495 307.908C93.9554 311.185 94.4115 314.206 94.8449 316.85C95.0578 318.162 95.258 319.391 95.4455 320.534C95.5621 321.662 95.6686 322.704 95.7649 323.657C95.9271 325.418 96.0589 326.85 96.1628 327.978C96.2363 328.971 96.254 329.493 96.2109 329.496Z" fill="#263238"/>
<path d="M95.5095 335.016C95.4867 335.014 95.4892 334.806 95.5095 334.403C95.5449 333.924 95.588 333.341 95.6413 332.624C95.7958 330.956 96.0036 328.681 96.2697 325.802C96.4167 324.311 96.5789 322.669 96.7563 320.877C96.8931 319.076 96.9413 317.106 97.0528 315C97.2099 310.781 97.6129 305.983 97.4659 300.669C97.4532 298.01 97.4406 295.228 97.4254 292.331C97.3949 289.432 97.1212 286.423 96.9742 283.304C96.7664 277.057 95.9149 270.432 95.1648 263.452C93.259 249.542 90.2786 234.364 85.7447 218.798C81.0587 203.273 75.2831 188.918 69.297 176.216C66.1215 169.954 63.2223 163.938 59.991 158.585C58.4147 155.891 57.0031 153.217 55.447 150.772C53.8808 148.336 52.3729 145.995 50.9359 143.759C48.1634 139.22 45.2084 135.421 42.778 131.97C41.5362 130.264 40.4236 128.64 39.3263 127.203C38.2036 125.799 37.1696 124.509 36.2344 123.34C34.4426 121.072 33.026 119.278 31.9869 117.965C31.551 117.392 31.1961 116.926 30.9072 116.546C30.669 116.221 30.555 116.047 30.5727 116.031C30.5905 116.016 30.7374 116.161 31.0086 116.457C31.3254 116.817 31.7131 117.255 32.1871 117.795C33.2717 119.073 34.7544 120.819 36.6272 123.024C37.5928 124.174 38.6546 125.441 39.8154 126.825C40.9431 128.242 42.0886 129.846 43.3608 131.539C45.8546 134.958 48.8679 138.734 51.7013 143.255C53.1687 145.485 54.7019 147.819 56.3011 150.247C57.885 152.688 59.3219 155.359 60.9262 158.05C64.2106 163.4 67.158 169.422 70.3766 175.699C76.4463 188.427 82.2879 202.834 86.9916 218.433C91.5483 234.07 94.5058 249.326 96.3533 263.305C97.0756 270.32 97.8892 276.976 98.0514 283.25C98.1755 286.383 98.4264 289.404 98.4289 292.313C98.4137 295.22 98.3985 298.013 98.3859 300.681C98.4746 306.016 98.0058 310.824 97.7802 315.051C97.6357 317.162 97.5496 319.131 97.3773 320.936C97.1593 322.725 96.9591 324.37 96.7766 325.86C96.4091 328.731 96.1176 331.002 95.9048 332.664C95.8008 333.377 95.7147 333.954 95.6463 334.428C95.5753 334.816 95.5297 335.019 95.5095 335.016Z" fill="#263238"/>
<path d="M147.25 36.7956C147.27 36.8083 147.182 36.9983 146.997 37.3633C146.768 37.7916 146.487 38.3162 146.14 38.9599C145.311 40.4399 144.176 42.4649 142.741 45.0245C142.012 46.3449 141.137 47.7767 140.293 49.4063C139.472 51.0561 138.585 52.8403 137.635 54.7537C136.674 56.6747 135.653 58.7225 134.568 60.8918C133.532 63.0891 132.548 65.4612 131.451 67.9245C130.387 70.4006 129.19 72.9602 128.091 75.6897C127.031 78.4368 125.931 81.2956 124.791 84.2506C124.221 85.7307 123.643 87.2334 123.055 88.7642C122.53 90.3152 121.996 91.8916 121.456 93.4933C120.376 96.6941 119.266 99.9887 118.128 103.364C113.916 116.986 109.925 132.159 106.554 148.267C103.29 164.406 100.999 179.928 99.3084 194.093C97.8588 208.28 96.7867 221.093 96.4953 231.879C96.2216 237.27 96.1658 242.148 96.1481 246.437C96.0797 250.722 96.062 254.415 96.1633 257.433C96.2039 260.368 96.2368 262.689 96.2622 264.385C96.2596 265.114 96.2571 265.71 96.2545 266.194C96.2469 266.602 96.2292 266.812 96.209 266.812C96.1862 266.812 96.1582 266.607 96.1227 266.199C96.0898 265.715 96.0493 265.122 96.0012 264.395C95.9175 262.699 95.8035 260.38 95.659 257.446C95.4791 254.427 95.4207 250.73 95.4233 246.437C95.37 242.143 95.3625 237.252 95.5779 231.852C95.7527 221.038 96.731 208.191 98.1198 193.964C99.7494 179.759 102.01 164.19 105.282 148.006C108.663 131.853 112.7 116.644 116.99 103.002C118.148 99.6212 119.281 96.3241 120.379 93.1182C120.931 91.5165 121.476 89.9401 122.013 88.3866C122.614 86.8584 123.204 85.353 123.785 83.8704C124.953 80.9154 126.078 78.0592 127.166 75.3095C128.293 72.5826 129.52 70.0255 130.615 67.552C131.743 65.0937 132.756 62.7266 133.826 60.537C134.943 58.3777 136 56.3377 136.991 54.4242C137.979 52.5235 138.902 50.752 139.753 49.1123C140.633 47.4954 141.543 46.0787 142.308 44.7761C143.834 42.2646 145.04 40.2777 145.922 38.8256C146.312 38.2097 146.629 37.7054 146.89 37.2974C147.108 36.9527 147.232 36.7829 147.25 36.7956Z" fill="#263238"/>
<path d="M140.496 223.332C140.569 223.383 139.814 224.703 138.382 227.042C136.93 229.366 134.933 232.797 132.594 237.096C130.234 241.386 127.667 246.625 125.064 252.545C122.525 258.493 119.986 265.143 117.758 272.267C115.579 279.409 113.924 286.332 112.664 292.678C111.473 299.037 110.639 304.81 110.165 309.683C109.671 314.552 109.382 318.513 109.273 321.25C109.134 323.987 109.015 325.505 108.926 325.505C108.837 325.505 108.784 323.987 108.766 321.237C108.721 318.488 108.87 314.506 109.248 309.6C109.605 304.691 110.35 298.87 111.483 292.458C112.684 286.059 114.316 279.077 116.511 271.884C118.754 264.71 121.347 258.024 123.962 252.063C126.643 246.131 129.312 240.902 131.785 236.647C134.239 232.384 136.362 229.011 137.951 226.766C139.523 224.505 140.422 223.281 140.496 223.332Z" fill="#263238"/>
<path d="M57.1755 315.814H144.48L133.917 404.984H68.0502L57.1755 315.814Z" fill="#455A64"/>
<path d="M60.3609 395.358L67.7763 404.984H133.917L141.545 395.668L60.3609 395.358Z" fill="#263238"/>
<path d="M141.079 342.039C141.079 342.398 122.961 342.69 100.616 342.69C78.2633 342.69 60.1505 342.398 60.1505 342.039C60.1505 341.679 78.2633 341.387 100.616 341.387C122.961 341.387 141.079 341.679 141.079 342.039Z" fill="#FAFAFA"/>
<path d="M141.079 347.976C141.079 348.336 122.961 348.628 100.616 348.628C78.2633 348.628 60.1505 348.336 60.1505 347.976C60.1505 347.617 78.2633 347.325 100.616 347.325C122.961 347.325 141.079 347.617 141.079 347.976Z" fill="#FAFAFA"/>
<path d="M139.989 353.725C139.989 354.084 122.505 354.376 100.943 354.376C79.3733 354.376 61.8942 354.084 61.8942 353.725C61.8942 353.365 79.3733 353.073 100.943 353.073C122.507 353.073 139.989 353.365 139.989 353.725Z" fill="#FAFAFA"/>
</svg>
