<svg width="1715" height="907" viewBox="0 0 1715 907" fill="none" xmlns="http://www.w3.org/2000/svg">
<path d="M451.216 400.314L458.449 397.592C458.449 397.592 456.569 405.262 466.884 407.471L460.324 412.195C460.324 412.195 451.484 408.895 451.216 400.314Z" fill="#FFA800"/>
<path d="M767.024 178.194L769.256 185.592C769.256 185.592 761.729 183.205 758.835 193.349L754.561 186.487C754.561 186.487 758.444 177.888 767.024 178.194Z" fill="#FFA800"/>
<path d="M360 600.326L360.629 595.019C360.629 595.019 364.741 598.613 369.377 592.981L370.191 598.512C370.191 598.512 365.354 602.89 360 600.326Z" fill="#FFA800"/>
<path d="M712.756 424.285L713.385 418.979C713.385 418.979 717.497 422.572 722.133 416.941L722.947 422.472C722.947 422.472 718.11 426.85 712.756 424.285Z" fill="#FFA800"/>
<path d="M574.669 107.344L575.298 102.038C575.298 102.038 579.41 105.631 584.046 100L584.861 105.531C584.861 105.531 580.023 109.909 574.669 107.344Z" fill="#FFA800"/>
<path d="M381.03 195.156L381.94 187.482C381.94 187.482 387.886 192.678 394.591 184.535L395.769 192.533C395.769 192.533 388.773 198.865 381.03 195.156Z" fill="#FFA800"/>
<path opacity="0.7" d="M381.03 195.156L381.94 187.482C381.94 187.482 387.886 192.678 394.591 184.535L395.769 192.533C395.769 192.533 388.773 198.865 381.03 195.156Z" fill="white"/>
<path d="M0 419.621L0.909244 411.947C0.909244 411.947 6.85545 417.143 13.5607 409L14.7383 416.998C14.7383 416.998 7.74281 423.33 0 419.621Z" fill="#FFA800"/>
<path opacity="0.7" d="M0 419.621L0.909244 411.947C0.909244 411.947 6.85545 417.143 13.5607 409L14.7383 416.998C14.7383 416.998 7.74281 423.33 0 419.621Z" fill="white"/>
<path d="M49 905.621L49.9092 897.947C49.9092 897.947 55.8554 903.143 62.5607 895L63.7383 902.998C63.7383 902.998 56.7428 909.33 49 905.621Z" fill="#FFA800"/>
<path opacity="0.7" d="M49 905.621L49.9092 897.947C49.9092 897.947 55.8554 903.143 62.5607 895L63.7383 902.998C63.7383 902.998 56.7428 909.33 49 905.621Z" fill="white"/>
<path d="M122 571.621L122.909 563.947C122.909 563.947 128.855 569.143 135.561 561L136.738 568.998C136.738 568.998 129.743 575.33 122 571.621Z" fill="#FFA800"/>
<path opacity="0.7" d="M122 571.621L122.909 563.947C122.909 563.947 128.855 569.143 135.561 561L136.738 568.998C136.738 568.998 129.743 575.33 122 571.621Z" fill="white"/>
<path d="M1566 899.621L1566.91 891.947C1566.91 891.947 1572.86 897.143 1579.56 889L1580.74 896.998C1580.74 896.998 1573.74 903.33 1566 899.621Z" fill="#FFA800"/>
<path opacity="0.7" d="M1566 899.621L1566.91 891.947C1566.91 891.947 1572.86 897.143 1579.56 889L1580.74 896.998C1580.74 896.998 1573.74 903.33 1566 899.621Z" fill="white"/>
<path d="M1685 720.621L1685.91 712.947C1685.91 712.947 1691.86 718.143 1698.56 710L1699.74 717.998C1699.74 717.998 1692.74 724.33 1685 720.621Z" fill="#FFA800"/>
<path opacity="0.7" d="M1685 720.621L1685.91 712.947C1685.91 712.947 1691.86 718.143 1698.56 710L1699.74 717.998C1699.74 717.998 1692.74 724.33 1685 720.621Z" fill="white"/>
<path d="M1444 347.621L1444.91 339.947C1444.91 339.947 1450.86 345.143 1457.56 337L1458.74 344.998C1458.74 344.998 1451.74 351.33 1444 347.621Z" fill="#FFA800"/>
<path opacity="0.7" d="M1444 347.621L1444.91 339.947C1444.91 339.947 1450.86 345.143 1457.56 337L1458.74 344.998C1458.74 344.998 1451.74 351.33 1444 347.621Z" fill="white"/>
<path d="M1700 349.621L1700.91 341.947C1700.91 341.947 1706.86 347.143 1713.56 339L1714.74 346.998C1714.74 346.998 1707.74 353.33 1700 349.621Z" fill="#FFA800"/>
<path opacity="0.7" d="M1700 349.621L1700.91 341.947C1700.91 341.947 1706.86 347.143 1713.56 339L1714.74 346.998C1714.74 346.998 1707.74 353.33 1700 349.621Z" fill="white"/>
<path d="M553.232 256.611L560.064 253C560.064 253 559.166 260.846 569.677 261.738L563.763 267.251C563.763 267.251 554.579 265.09 553.232 256.611Z" fill="#FFA800"/>
<path opacity="0.7" d="M553.232 256.611L560.064 253C560.064 253 559.166 260.846 569.677 261.738L563.763 267.251C563.763 267.251 554.579 265.09 553.232 256.611Z" fill="white"/>
<path d="M862.773 167.547L869.605 163.936C869.605 163.936 868.707 171.782 879.217 172.674L873.304 178.187C873.304 178.187 864.119 176.026 862.773 167.547Z" fill="#FFA800"/>
<path opacity="0.7" d="M862.773 167.547L869.605 163.936C869.605 163.936 868.707 171.782 879.217 172.674L873.304 178.187C873.304 178.187 864.119 176.026 862.773 167.547Z" fill="white"/>
<path d="M1116.53 401.436L1118.76 408.834C1118.76 408.834 1111.24 406.446 1108.34 416.589L1104.07 409.728C1104.07 409.728 1107.95 401.129 1116.53 401.436Z" fill="#FFA800"/>
<path d="M1199.52 717.304L1198.83 709.607C1198.83 709.607 1205.72 713.471 1210.61 704.124L1213.4 711.71C1213.4 711.71 1207.86 719.343 1199.52 717.304Z" fill="#FFA800"/>
<path d="M1252.07 277.379L1251.39 269.682C1251.39 269.682 1258.27 273.546 1263.16 264.199L1265.96 271.785C1265.96 271.785 1260.41 279.418 1252.07 277.379Z" fill="#FFA800"/>
<path d="M1542.69 647.18L1542 639.483C1542 639.483 1548.89 643.347 1553.78 634L1556.57 641.586C1556.57 641.586 1551.03 649.219 1542.69 647.18Z" fill="#FFA800"/>
<path d="M1661.69 13.18L1661 5.48307C1661 5.48307 1667.89 9.3471 1672.78 0L1675.57 7.58572C1675.57 7.58572 1670.03 15.2192 1661.69 13.18Z" fill="#FFA800"/>
<path d="M15.6863 714.18L15 706.483C15 706.483 21.8868 710.347 26.7764 701L29.5715 708.586C29.5715 708.586 24.0258 716.219 15.6863 714.18Z" fill="#FFA800"/>
<path d="M23.6863 156.18L23 148.483C23 148.483 29.8868 152.347 34.7764 143L37.5715 150.586C37.5715 150.586 32.0258 158.219 23.6863 156.18Z" fill="#FFA800"/>
<path d="M524.995 616.259L524.309 608.562C524.309 608.562 531.196 612.426 536.085 603.079L538.88 610.665C538.88 610.665 533.335 618.298 524.995 616.259Z" fill="#FFA800"/>
<path d="M389.169 797.806L388.482 790.109C388.482 790.109 395.369 793.973 400.259 784.626L403.054 792.211C403.054 792.211 397.508 799.845 389.169 797.806Z" fill="#FFA800"/>
<path d="M264.686 347.18L264 339.483C264 339.483 270.887 343.347 275.777 334L278.572 341.586C278.572 341.586 273.026 349.219 264.686 347.18Z" fill="#FFA800"/>
<path d="M180.686 128.18L180 120.483C180 120.483 186.887 124.347 191.777 115L194.572 122.586C194.572 122.586 189.026 130.219 180.686 128.18Z" fill="#FFA800"/>
<path d="M214.686 800.18L214 792.483C214 792.483 220.887 796.347 225.777 787L228.572 794.586C228.572 794.586 223.026 802.219 214.686 800.18Z" fill="#FFA800"/>
<path d="M1190.91 138.702L1191.53 133.395C1191.53 133.395 1195.65 136.988 1200.28 131.357L1201.1 136.888C1201.1 136.888 1196.26 141.266 1190.91 138.702Z" fill="#FFA800"/>
<path d="M1030.49 204.004L1031.12 198.698C1031.12 198.698 1035.23 202.291 1039.86 196.66L1040.68 202.19C1040.68 202.19 1035.84 206.568 1030.49 204.004Z" fill="#FFA800"/>
<path d="M1276.7 489.421L1283.53 485.81C1283.53 485.81 1282.63 493.656 1293.14 494.548L1287.23 500.061C1287.23 500.061 1278.05 497.9 1276.7 489.421Z" fill="#FFA800"/>
<path opacity="0.7" d="M1276.7 489.421L1283.53 485.81C1283.53 485.81 1282.63 493.656 1293.14 494.548L1287.23 500.061C1287.23 500.061 1278.05 497.9 1276.7 489.421Z" fill="white"/>
<path d="M969.535 623.483L976.367 619.872C976.367 619.872 975.468 627.718 985.98 628.61L980.066 634.123C980.066 634.123 970.881 631.962 969.535 623.483Z" fill="#FFA800"/>
<path opacity="0.7" d="M969.535 623.483L976.367 619.872C976.367 619.872 975.468 627.718 985.98 628.61L980.066 634.123C980.066 634.123 970.881 631.962 969.535 623.483Z" fill="white"/>
<path d="M1557 260.611L1563.83 257C1563.83 257 1562.93 264.846 1573.44 265.738L1567.53 271.251C1567.53 271.251 1558.35 269.09 1557 260.611Z" fill="#FFA800"/>
<path opacity="0.7" d="M1557 260.611L1563.83 257C1563.83 257 1562.93 264.846 1573.44 265.738L1567.53 271.251C1567.53 271.251 1558.35 269.09 1557 260.611Z" fill="white"/>
<path d="M670.393 711.646L677.225 708.035C677.225 708.035 676.327 715.881 686.837 716.773L680.924 722.286C680.924 722.286 671.739 720.125 670.393 711.646Z" fill="#FFA800"/>
<path opacity="0.7" d="M670.393 711.646L677.225 708.035C677.225 708.035 676.327 715.881 686.837 716.773L680.924 722.286C680.924 722.286 671.739 720.125 670.393 711.646Z" fill="white"/>
<path d="M1584 508.155L1586.2 500.748C1586.2 500.748 1591.18 506.882 1599.17 500L1598.97 508.082C1598.97 508.082 1591 513.129 1584 508.155Z" fill="#FFA800"/>
<path opacity="0.7" d="M1584 508.155L1586.2 500.748C1586.2 500.748 1591.18 506.882 1599.17 500L1598.97 508.082C1598.97 508.082 1591 513.129 1584 508.155Z" fill="white"/>
<path d="M883.397 112.277L885.601 104.871C885.601 104.871 890.575 111.005 898.57 104.123L898.367 112.205C898.367 112.205 890.395 117.251 883.397 112.277Z" fill="#FFA800"/>
<path opacity="0.7" d="M883.397 112.277L885.601 104.871C885.601 104.871 890.575 111.005 898.57 104.123L898.367 112.205C898.367 112.205 890.395 117.251 883.397 112.277Z" fill="white"/>
</svg>
